<?xml version="1.0" encoding="utf-8"?>
<!-- Generator: Adobe Illustrator 18.0.0, SVG Export Plug-In . SVG Version: 6.00 Build 0)  -->
<!DOCTYPE svg PUBLIC "-//W3C//DTD SVG 1.1//EN" "http://www.w3.org/Graphics/SVG/1.1/DTD/svg11.dtd">
<svg version="1.1" id="Layer_1" xmlns="http://www.w3.org/2000/svg" xmlns:xlink="http://www.w3.org/1999/xlink" x="0px" y="0px"
	 viewBox="0 0 224 93" enable-background="new 0 0 224 93" xml:space="preserve">
<polygon fill="#19388A" stroke="#19398A" stroke-width="0.827" points="113.1,88.9 1.5,71.9 110.9,2.7 222.5,19.7 "/>
<polygon fill="#FFFFFF" stroke="#19388A" stroke-width="1.2123" stroke-miterlimit="8" points="90.4,91.1 37.9,72.3 137.1,66.4 
	27.7,66.4 55.5,31.4 7.7,71.3 "/>
<polygon fill="#FFFFFF" stroke="#19388A" stroke-width="1.2123" stroke-miterlimit="7" points="134.3,1 186.7,20 88.3,25.8 
	197.6,25.8 171.1,62.3 216.6,20.4 "/>
<g>
	<path fill="#FFFFFF" d="M79.6,35.5h-10l2.1-5.2h25.8l-2.1,5.2h-10L74.2,62.9h-5.8L79.6,35.5z"/>
	<path fill="#FFFFFF" d="M103.3,30.3h12.8c8.6,0,14.4,5.2,9.9,16.3c-4.6,11.1-16.1,16.3-23.9,16.3H90L103.3,30.3z M102.3,57.6
		c7.3,0,14.5-3.1,17.7-11.1c3.2-7.9-0.6-11.1-7.7-11.1H107l-9,22.1H102.3z"/>
	<path fill="#FFFFFF" d="M151.4,37.3c-0.5-1.8-2.4-2.6-4.7-2.6c-2.7,0-5.8,1.2-7.1,4.2c-2.7,6.5,14.3,2.8,9.6,14.4
		c-2.9,7-9.8,10.4-16.2,10.4c-4.1,0-7.5-1.2-8.9-4.4l6.1-4.2c0.5,2.2,2.5,3.4,5.1,3.4c2.7,0,6.3-1.5,7.5-4.5
		c2.9-7.1-14.2-3-9.5-14.7c2.7-6.7,10-9.9,16-9.9c3.4,0,6.4,1,8,3.4L151.4,37.3z"/>
</g>
<g>
	<path fill="#19388A" d="M164.7,61.2c1.9,0,3.4,1.5,3.4,3.4c0,1.9-1.6,3.4-3.4,3.4c-1.9,0-3.4-1.5-3.4-3.4
		C161.3,62.7,162.9,61.2,164.7,61.2z M164.7,67.5c1.6,0,2.9-1.3,2.9-2.9c0-1.6-1.3-2.9-2.9-2.9c-1.6,0-2.9,1.2-2.9,2.9
		C161.8,66.3,163.1,67.5,164.7,67.5z M163.4,62.7h1.4c0.9,0,1.4,0.3,1.4,1.1c0,0.7-0.5,1-1,1.1l1.1,1.7h-0.6l-1.1-1.7H164v1.7h-0.5
		V62.7z M164,64.4h0.7c0.5,0,1.1,0,1.1-0.6c0-0.5-0.5-0.6-0.9-0.6H164V64.4z"/>
</g>
</svg>
